<?xml version="1.0" encoding="UTF-8" standalone="no"?>
<svg
   xmlns:dc="http://purl.org/dc/elements/1.1/"
   xmlns:cc="http://creativecommons.org/ns#"
   xmlns:rdf="http://www.w3.org/1999/02/22-rdf-syntax-ns#"
   xmlns:svg="http://www.w3.org/2000/svg"
   xmlns="http://www.w3.org/2000/svg"
   xmlns:sodipodi="http://sodipodi.sourceforge.net/DTD/sodipodi-0.dtd"
   xmlns:inkscape="http://www.inkscape.org/namespaces/inkscape"
   version="1.0"
   width="700.000000pt"
   height="700.000000pt"
   viewBox="0 0 700.000000 700.000000"
   preserveAspectRatio="xMidYMid meet"
   id="svg8"
   sodipodi:docname="safari-pinned-tab.svg"
   inkscape:version="0.92.4 (5da689c313, 2019-01-14)">
  <defs
     id="defs12" />
  <sodipodi:namedview
     pagecolor="#ffffff"
     bordercolor="#666666"
     borderopacity="1"
     objecttolerance="10"
     gridtolerance="10"
     guidetolerance="10"
     inkscape:pageopacity="0"
     inkscape:pageshadow="2"
     inkscape:window-width="2128"
     inkscape:window-height="1183"
     id="namedview10"
     showgrid="false"
     inkscape:zoom="0.50571429"
     inkscape:cx="908.24402"
     inkscape:cy="164.53176"
     inkscape:window-x="916"
     inkscape:window-y="611"
     inkscape:window-maximized="0"
     inkscape:current-layer="svg8" />
  <metadata
     id="metadata2">
Created by potrace 1.11, written by Peter Selinger 2001-2013
<rdf:RDF>
  <cc:Work
     rdf:about="">
    <dc:format>image/svg+xml</dc:format>
    <dc:type
       rdf:resource="http://purl.org/dc/dcmitype/StillImage" />
  </cc:Work>
</rdf:RDF>
</metadata>
  <g
     transform="matrix(1.4511896,0,0,1.4511896,-175.36121,-303.31884)"
     id="layer1">
    <g
       style="fill:#000000;fill-opacity:1;stroke-linejoin:miter"
       id="g3736">
      <path
         inkscape:connector-curvature="0"
         d="m 219.27141,417.8872 c -0.0725,0.12653 0.0253,0.2519 0.21994,0.25068 0.21901,-10e-4 0.38888,-0.12842 0.38843,-0.25452 -6e-4,-0.1513 -0.0983,-0.25149 -0.21996,-0.25076 -0.14602,8.8e-4 -0.31595,0.10287 -0.38841,0.2546 z"
         id="path3734" />
    </g>
    <g
       style="fill:#000000;fill-opacity:1;stroke-linejoin:miter"
       id="g3740">
      <path
         inkscape:connector-curvature="0"
         d="m 262.47482,380.4001 c 0.11426,0 0.24344,1.14494 0.33348,3.13683 0.0995,1.95422 0.3465,4.41447 0.5678,5.45312 0.24576,1.03839 0.51642,2.60922 0.63953,3.47077 0.14755,0.86114 0.46694,2.17746 0.73687,2.91064 0.2699,0.73322 0.49082,1.49222 0.49094,1.66968 1.2e-4,0.17746 0.26999,0.93582 0.58884,1.64309 0.78472,1.81894 0.93194,2.37537 0.66265,2.55463 -0.0624,0.0409 -0.13296,0.0605 -0.20971,0.0605 -0.40476,0 -0.9823,-0.54682 -1.4563,-1.41658 -0.29419,-0.50466 -0.90682,-1.1337 -1.37219,-1.33296 l -0.8328,-0.39934 -0.22653,-7.55422 c -0.25226,-8.75546 -0.22845,-9.54306 0.0407,-10.15506 0.012,-0.0275 0.0243,-0.0411 0.0367,-0.0411 z m -42.81367,37.2325 c 0.12103,0 0.21803,0.1 0.21863,0.25076 4.5e-4,0.1261 -0.16942,0.25308 -0.38843,0.25452 h -0.003 c -0.19277,0 -0.28927,-0.12476 -0.21712,-0.25068 0.0725,-0.15173 0.24239,-0.25372 0.38841,-0.2546 z m -36.50563,-40.19254 c 0.19977,0 0.31759,0.14801 0.50625,0.50226 0.17238,0.35282 0.49451,1.33682 0.66982,2.17014 0.19977,0.85837 0.49809,1.94344 0.69548,2.42234 0.17303,0.47896 0.61914,1.89132 0.99136,3.1523 0.372,1.2356 0.91692,2.9498 1.1892,3.78147 0.27226,0.83169 0.64421,2.09198 0.84295,2.82293 0.19853,0.70566 0.56937,1.78882 0.84014,2.39277 0.2706,0.5787 0.49338,1.28399 0.49487,1.53646 0.001,0.22721 0.22389,0.90714 0.49463,1.51097 0.24628,0.5787 0.64028,1.5096 0.8378,2.0634 0.19745,0.5537 0.69133,1.96308 1.11079,3.1206 0.41954,1.1826 0.86267,2.23875 1.00919,2.38902 0.12214,0.12528 0.24539,0.45228 0.24684,0.70444 0.002,0.4035 0.24846,1.00692 1.57612,3.97259 0.22118,0.47735 0.51598,1.10553 0.68743,1.38153 0.17149,0.27609 0.63701,1.05417 1.05359,1.75702 0.39212,0.67767 1.19977,1.8817 1.78672,2.68405 0.80674,1.05275 1.0279,1.55512 0.90848,1.93355 -0.0713,0.30275 -0.24003,0.53038 -0.33712,0.531 -0.12137,7.8e-4 -0.55311,0.98553 -0.98371,2.17153 -0.43039,1.21085 -0.93452,2.22055 -1.17662,2.32269 -0.21793,0.0768 -0.65311,0.35628 -0.99136,0.6099 l -0.62807,0.48184 -2.26451,-1.57132 c -1.26611,-0.87284 -2.70251,-1.84534 -3.21381,-2.19444 -1.55816,-1.07235 -7.79914,-6.69536 -9.92248,-8.94735 -1.09857,-1.20123 -2.85762,-3.30481 -3.88486,-4.68313 -1.05151,-1.37824 -2.44556,-3.20767 -3.12993,-4.03446 -2.88518,-3.60856 -5.25987,-6.91894 -5.26301,-7.34762 -0.001,-0.1514 0.71775,-1.24154 1.62985,-2.45957 0.88823,-1.1929 1.87152,-2.68977 2.20665,-3.29834 0.3352,-0.60861 1.19824,-2.02963 1.94209,-3.19751 0.74402,-1.16815 1.82379,-2.94582 2.39917,-3.987 0.64766,-1.143 1.27342,-1.95739 1.66091,-2.11242 0.33889,-0.15467 1.04095,-0.4893 1.59785,-0.74698 0.55682,-0.28292 1.06555,-0.48972 1.16274,-0.49052 0.0728,-6e-4 0.60598,-0.2076 1.18725,-0.49077 0.55715,-0.25783 1.28401,-0.59293 1.62343,-0.72243 0.19235,-0.0838 0.33116,-0.13094 0.44388,-0.13094 z m 38.09849,-138.67784 c -1.19798,0 -2.1732,0.0892 -2.66627,0.26595 -0.54112,0.21563 -1.59904,0.54306 -2.33713,0.7361 -0.73804,0.19291 -1.79533,0.57179 -2.33601,0.81315 -0.5405,0.26718 -1.59732,0.67178 -2.35929,0.91669 -1.35168,0.43512 -2.30771,1.25105 -2.89281,2.44812 -0.14608,0.33792 -0.73416,0.8378 -1.2738,1.1563 -2.33017,1.2758 -6.04286,6.00251 -7.49893,9.50444 -1.28546,3.08493 -1.54742,4.63385 -1.71236,10.63238 -0.14354,5.37625 -0.19046,5.78827 -0.79671,7.08205 -0.3393,0.75017 -0.72443,2.09166 -0.84231,2.96663 -0.11792,0.87497 -0.38199,1.90597 -0.57582,2.31961 -0.55751,1.13754 -0.91215,3.5039 -1.03911,7.17446 -0.14923,4.0535 -0.0247,4.43635 2.53639,7.11857 1.35435,1.41687 1.99356,1.89523 2.67994,2.01419 0.25007,0.0489 0.49374,0.0729 0.729,0.0729 0.80266,0 1.50752,-0.27945 2.03541,-0.8018 0.24795,-0.24215 0.53145,-0.4113 0.67211,-0.4113 0.0253,0 0.046,0.005 0.0611,0.017 0.12288,0.0753 0.24912,0.84253 0.27771,1.68796 0.0565,1.53672 0.82732,3.90909 1.74074,5.38269 0.29622,0.48276 0.4252,1.86389 0.64154,6.21267 0.32791,7.28531 0.16687,9.48548 -0.80467,11.03036 -0.80104,1.31245 -2.01967,2.22096 -2.94896,2.23194 -1.19818,0.0143 -2.78244,0.97776 -3.36378,2.00574 -0.29053,0.53937 -1.16518,1.51952 -1.9191,2.19177 -0.827,0.69837 -1.60343,1.67675 -1.91744,2.31805 -0.60327,1.33295 -1.69838,2.00843 -3.33404,2.02708 -0.58583,0.007 -1.75577,0.30042 -2.58344,0.66672 -0.82751,0.3662 -1.60661,0.65527 -1.72862,0.65667 -0.14633,0.002 -0.60818,0.28717 -1.04509,0.64887 -0.43692,0.36166 -0.94737,0.64758 -1.1425,0.64981 -0.1951,0.002 -1.33789,0.54995 -2.52847,1.22543 -1.53037,0.85745 -2.64868,1.30272 -3.96305,1.54645 -3.89318,0.70502 -4.0137,0.88447 -3.92852,6.19987 l 0.0757,3.93938 -0.94106,1.17877 c -0.53071,0.66617 -1.10752,1.6883 -1.29808,2.27445 -0.40513,1.19775 -0.886,1.98986 -2.52427,4.13897 -0.57799,0.76713 -1.72942,2.88463 -2.56652,4.71909 -0.81268,1.80829 -1.72283,3.54084 -2.01217,3.82236 -0.31359,0.28188 -0.91454,1.09851 -1.346,1.83738 -0.45585,0.71373 -0.93612,1.40227 -1.08119,1.47963 -0.60368,0.41089 -1.65695,2.29459 -1.65162,2.97812 0.008,1.01248 -0.54233,2.00458 -1.41085,2.61995 -0.41012,0.28212 -0.86651,0.84288 -1.03286,1.27443 -0.14222,0.4061 -0.7173,1.27133 -1.24564,1.90839 -0.55246,0.63711 -1.41539,1.83318 -1.94197,2.64678 -0.52626,0.83872 -1.14891,1.72874 -1.3649,1.9833 -0.24016,0.2548 -0.43146,0.55967 -0.43042,0.686 0.001,0.12627 -0.45326,0.83763 -1.004,1.6002 -2.29884,3.04975 -5.88795,10.5218 -6.37173,13.2482 -0.13774,0.8327 -0.36968,1.94324 -0.51027,2.44825 -0.18707,0.70682 -0.18057,1.43728 0.074,2.89618 0.53476,3.06787 0.85557,3.82067 2.76274,6.34884 1.0757,1.4267 9.53496,10.02123 12.40855,12.61707 0.46253,0.39932 1.92388,1.74731 3.26343,2.99551 1.3394,1.22303 2.82384,2.44522 3.30944,2.69358 0.48576,0.27334 1.11853,0.79715 1.41172,1.19737 0.29316,0.4002 0.87734,0.89912 1.31441,1.12273 0.41281,0.22357 0.94754,0.57207 1.14233,0.74673 0.19497,0.19984 1.50902,1.27222 2.92016,2.39434 1.41099,1.09696 3.16348,2.59385 3.89436,3.31794 0.75503,0.72396 1.60658,1.39713 1.89764,1.496 0.31516,0.0735 1.1425,0.74696 1.82492,1.47126 2.16838,2.1975 3.72545,3.44418 6.37444,5.0617 2.37475,1.45508 4.9634,2.2331 7.33028,2.2331 0.58851,0 1.16332,-0.0481 1.71774,-0.14585 0.45195,-0.082 0.74354,-0.12762 0.93103,-0.12762 0.28462,0 0.32922,0.10507 0.3305,0.34723 0.001,0.25104 -0.0943,0.50254 -0.21499,0.60348 -0.33827,0.20246 -1.36951,2.24039 -1.55908,3.04413 -0.0949,0.37677 -0.25788,1.60669 -0.37307,2.71081 -0.13941,1.10392 -0.35209,2.08277 -0.52107,2.18382 -0.24138,0.15154 -0.308,1.25475 -0.31645,4.16174 0.0118,2.17941 -0.0716,4.63396 -0.16396,5.46054 -0.20794,1.80312 0.21032,3.07785 1.30359,3.89942 0.38874,0.29882 1.04621,1.072 1.48529,1.74596 0.65894,1.0734 0.78229,1.52314 0.98751,3.7735 0.10418,1.42494 0.45344,3.47366 0.74934,4.57254 0.49297,1.7976 0.51894,2.14743 0.2607,3.6721 -0.28096,1.7992 -0.23055,2.19863 0.57623,3.94423 0.46417,0.94739 0.53937,1.47135 0.47703,3.49327 -0.0408,1.4973 0.0618,2.66958 0.23323,3.1181 0.17135,0.42367 0.39832,2.31863 0.50457,4.23833 0.24045,4.61017 0.6766,9.76497 1.12942,13.44822 0.20117,1.6419 0.37712,3.05969 0.3775,3.13433 4.8e-4,0.0995 0.29233,0.54694 0.6323,0.96932 0.55839,0.67082 0.63193,0.89458 0.46741,1.81496 -0.39957,2.21314 -0.1046,8.32544 0.58877,12.07464 0.19838,1.14176 0.68894,2.8789 1.07935,3.84665 0.70776,1.81105 0.75853,2.35675 0.73504,7.66335 0.004,0.9169 0.20539,2.70134 0.45223,3.96495 0.41919,2.08095 0.47333,3.36889 0.45073,14.15728 -0.0181,6.52457 0.0591,12.84577 0.18506,14.08002 0.25315,2.76375 1.14247,7.99355 1.80331,10.60765 1.34576,5.3985 1.39517,5.69423 1.86288,8.2562 0.14739,0.7389 0.36748,1.62565 0.51313,1.9706 0.26705,0.6407 1.17322,4.703 1.5182,6.77 0.34495,2.0664 1.90842,8.5348 2.41845,9.9613 0.50987,1.4264 0.75741,3.2932 1.3612,10.31304 0.20125,2.35486 0.42581,4.56201 0.49889,4.85636 0.0732,0.3189 0.0269,0.7354 -0.14025,0.93056 -0.16714,0.19524 -0.21312,0.70947 -0.1392,1.19984 0.10405,0.6436 0.0858,0.7948 -0.19909,0.7948 -0.0515,0 -0.11177,-0.005 -0.18159,-0.0128 -0.0309,-0.004 -0.061,-0.006 -0.0904,-0.006 -0.35861,0 -0.61801,0.30249 -1.07945,1.2735 -0.38056,0.7572 -0.66422,1.73505 -0.66213,2.24909 0.002,0.51426 -0.0919,0.97882 -0.21142,1.05151 -0.45419,0.2912 -0.7571,2.36981 -0.4659,3.2522 0.21839,0.66175 0.19994,2.00695 -6.1e-4,5.64915 -0.22327,3.90895 -0.38611,5.0562 -0.83545,6.3724 -0.73329,2.07085 -0.73004,2.82775 0.014,3.3452 0.33591,0.1975 0.62481,0.6142 0.67382,0.88306 0.0491,0.29324 0.55412,0.88234 1.15413,1.30114 0.98424,0.71437 1.08065,0.88575 1.20472,1.98475 0.14957,1.51365 1.30602,3.47305 2.16829,3.64975 0.33531,0.0754 1.03063,0.373 1.53435,0.66916 1.15135,0.61784 4.50444,0.93394 13.08244,1.18924 1.26542,0.0354 2.42026,0.0539 3.47724,0.0539 3.79025,0 6.32179,-0.23734 8.17851,-0.7782 1.03163,-0.286 1.27138,-0.4553 1.4144,-1.0161 0.0713,-0.36595 0.33456,-0.8529 0.5502,-1.09575 0.95865,-1.06855 0.51575,-6.98815 -0.71423,-9.51575 -0.36185,-0.7607 -0.77192,-1.5953 -0.89251,-1.8407 -0.12059,-0.24536 -0.3618,-0.7119 -0.53068,-1.0556 -0.19292,-0.3438 -0.65115,-1.2277 -1.03714,-1.9645 -0.38594,-0.7366 -0.79596,-1.47355 -0.89238,-1.5966 -0.36142,-0.46734 -0.96639,-2.4544 -0.96805,-3.1892 -8.8e-4,-0.4164 -0.21933,-1.3974 -0.48535,-2.15845 -0.26614,-0.78558 -0.6067,-2.60089 -0.75423,-4.04779 -0.27128,-2.99276 -0.82954,-5.27656 -1.40777,-5.77016 -0.2168,-0.1728 -0.89086,-0.51964 -1.51653,-0.7681 -1.27534,-0.47254 -2.1197,-1.6298 -2.14715,-2.9305 -0.0277,-1.39886 -0.82671,-3.4892 -1.35589,-3.56536 -0.43295,-0.0757 -0.50576,-0.32147 -0.60589,-1.74604 -0.0751,-1.0562 -0.34253,-2.13805 -0.70532,-2.8765 -0.31452,-0.6647 -0.65431,-1.7717 -0.77646,-2.43557 -0.12223,-0.68859 -0.36728,-10.57483 -0.52091,-22.0271 -0.15377,-11.47039 -0.30543,-22.14337 -0.33412,-23.70113 -0.0318,-2.62186 0.0154,-3.01755 0.70925,-5.0702 1.0773,-3.1672 1.70134,-4.52835 2.20775,-4.8002 0.43399,-0.24725 3.16117,-1.1855 7.02496,-2.3957 1.93275,-0.61767 4.2285,-1.4088 6.40414,-2.2499 1.52338,-0.5692 5.48963,-2.9481 6.16669,-3.6676 0.33858,-0.37204 1.11271,-1.0419 1.71773,-1.5133 0.91978,-0.69474 1.16168,-1.0175 1.28192,-1.83713 0.19246,-1.26687 -0.41702,-4.42292 -1.21897,-6.21277 -0.41314,-0.9199 -0.68133,-2.13837 -0.82879,-3.7299 -0.12285,-1.2935 -0.39299,-3.9308 -0.61374,-5.8471 -1.32594,-11.8068 -1.49973,-14.5745 -1.0424,-17.36886 0.33708,-2.04676 0.36001,-3.04524 0.13641,-6.74014 -0.12474,-2.37263 -0.39617,-5.3707 -0.59236,-6.67 -0.19623,-1.29946 -0.29508,-2.44942 -0.22235,-2.57464 0.009,-0.0155 0.0237,-0.023 0.0433,-0.023 0.13821,0 0.52189,0.37132 0.90575,0.89606 0.43831,0.59918 1.09541,1.27276 1.43599,1.49698 0.34051,0.22438 1.24105,1.2225 2.02002,2.2207 0.75463,0.99832 1.72813,2.22108 2.1419,2.72013 0.38938,0.47405 0.9978,1.22265 1.31415,1.62179 0.31638,0.39916 1.21668,1.44702 1.97101,2.34506 0.75427,0.89805 1.58145,1.92072 1.84917,2.27005 3.57563,4.93802 5.0594,6.70871 5.59452,6.70871 h 3.4e-4 c 0.19467,0 1.31329,0.97211 2.50488,2.16864 1.58076,1.6204 2.43196,2.29346 3.21021,2.54224 0.91342,0.30042 3.10739,0.48761 4.93075,0.48761 0.89548,0 1.7016,-0.0451 2.22272,-0.14425 l 1.21741,-0.2256 0.0184,7.73386 c -0.005,6.25574 0.0668,8.02434 0.38205,9.12024 0.8728,3.1374 1.69339,9.80616 2.09976,17.0405 0.11951,2.0373 0.33621,4.04935 0.48154,4.4219 0.46036,1.1925 0.31354,2.1853 -0.3671,2.95386 -0.55908,0.56994 -0.68078,0.94204 -0.77923,2.48044 -0.0739,1.2404 0.0223,2.23276 0.26415,3.12595 0.2904,0.94299 0.31412,1.48855 0.16813,1.93465 -0.14593,0.3468 -0.24378,1.1151 -0.2443,1.73484 -8.8e-4,0.93896 -0.0733,1.08956 -0.48245,1.08956 h -0.005 c -0.36331,0 -0.63022,0.3219 -0.99442,1.16264 -0.43741,1.03961 -0.51074,1.73306 -0.53772,5.27446 -0.002,2.6487 0.0694,4.3316 0.26303,4.77754 0.16925,0.3963 0.36191,2.00482 0.43333,3.58801 0.0713,1.58275 0.23962,3.21495 0.3846,3.63569 0.12085,0.39581 0.31345,1.78056 0.43357,3.01646 0.23965,2.8664 0.89215,4.4245 1.95767,4.6506 0.38748,0.10015 0.70218,0.27404 0.70203,0.42217 -1.7e-4,0.14823 -0.97013,1.28063 -2.13373,2.53533 -4.48124,4.7445 -7.36179,9.7858 -8.74136,15.2473 -1.71674,6.8811 -1.45286,15.92654 0.59674,21.38845 1.92813,5.04145 4.89268,9.93995 8.147,13.36798 2.38628,2.53987 6.41266,5.67853 9.01748,7.09271 0.67548,0.37216 1.2541,0.81702 1.2538,1.013 -3e-4,0.17151 0.57833,0.66541 1.25362,1.08661 1.08542,0.61981 1.51984,0.72089 2.92044,0.73075 0.0578,-10e-4 0.11542,-0.002 0.17267,-0.002 0.85202,0 1.62659,0.1231 1.80734,0.28505 0.14223,0.10935 0.31076,0.17902 0.43796,0.17902 0.0454,0 0.0855,-0.009 0.11734,-0.028 0.0159,-0.008 0.0505,-0.0118 0.10129,-0.0118 0.25874,0 0.93497,0.1001 1.66174,0.26907 1.5507,0.39664 6.82083,0.6352 11.37082,0.6352 2.67778,0 5.10608,-0.0827 6.38008,-0.2643 3.4645,-0.5151 5.35774,-1.5322 4.70772,-2.5918 -0.33704,-0.5421 -0.31268,-0.59113 1.48404,-1.56043 2.57492,-1.40637 6.51664,-4.47477 8.61316,-6.69727 4.29455,-4.59595 6.67056,-8.5439 8.20378,-13.7072 2.10408,-7.0391 2.19868,-15.7514 0.2351,-22.1102 -0.81477,-2.5992 -3.32313,-7.5313 -5.2098,-10.23564 -2.85475,-4.09446 -7.51143,-8.39441 -11.78618,-10.86046 -0.94717,-0.54805 -1.74829,-1.0707 -1.74792,-1.16975 2e-4,-0.0744 0.78082,-0.5177 1.732,-0.96055 0.9269,-0.44295 1.97664,-1.1087 2.29488,-1.50423 1.19934,-1.43397 1.32987,-3.51612 0.3613,-4.95707 -0.26658,-0.34805 -0.45978,-0.7702 -0.45932,-0.89425 0.002,-0.37205 -3.63791,-4.15235 -4.31854,-4.52619 -0.31617,-0.14972 -1.11875,-0.44946 -1.77567,-0.64959 -0.68127,-0.20017 -1.72687,-0.64937 -2.33447,-0.99823 -0.60761,-0.32404 -1.31281,-0.59858 -1.53192,-0.59914 -0.53566,-10e-4 -3.57166,-2.1919 -4.4205,-3.1864 -0.3638,-0.42265 -1.18976,-0.9705 -1.87064,-1.1953 -0.72934,-0.2746 -1.33649,-0.6978 -1.55438,-1.09534 -0.46027,-0.77046 -2.03774,-2.36236 -3.76166,-3.78076 -0.72842,-0.5972 -1.55398,-1.2691 -1.84534,-1.51794 -0.29134,-0.24876 -0.97174,-0.5976 -1.48221,-0.77226 -0.65628,-0.24953 -0.99615,-0.5233 -1.09263,-0.9208 -0.38576,-1.5404 0.0395,-6.7577 1.12672,-13.7697 0.22238,-1.3685 0.44535,-2.9862 0.51993,-3.60853 0.17435,-1.59347 0.57108,-4.48227 0.96732,-7.09857 1.85891,-11.9982 2.75173,-26.84482 1.96011,-32.47528 -0.14383,-1.10152 -0.40538,-3.95645 -0.54596,-6.36158 -0.14066,-2.40582 -0.4032,-4.96261 -0.59698,-5.7146 -0.19379,-0.75198 -0.33817,-1.67974 -0.33716,-2.08111 0.002,-0.70239 -0.50738,-2.5831 -0.96958,-3.63593 -0.41366,-0.9025 -0.778,-1.98098 -1.11718,-3.38586 -0.194,-0.75281 -0.82666,-2.23274 -1.4115,-3.26074 -0.58484,-1.02814 -1.14512,-2.15702 -1.24222,-2.50843 -0.0971,-0.35144 -0.48688,-1.15429 -0.8525,-1.78137 -0.36576,-0.62707 -0.75523,-1.60605 -0.82743,-2.15872 -0.0968,-0.5527 -0.65677,-1.98386 -1.26602,-3.21378 -0.58505,-1.20507 -1.07212,-2.43572 -1.07151,-2.73754 -0.0226,-1.08156 -0.9498,-2.56253 -2.51349,-3.99094 -1.29495,-1.17786 -1.66128,-1.6546 -1.75802,-2.38402 -0.26657,-1.6855 -0.85239,-2.71544 -1.8548,-3.2904 -0.51346,-0.30004 -1.07563,-0.751 -1.24661,-1.00206 -0.17092,-0.25107 -1.27039,-1.50554 -2.44324,-2.81021 -1.19736,-1.30457 -2.1503,-2.45913 -2.15021,-2.55993 6.1e-4,-0.57945 -2.29623,-3.7692 -3.05427,-4.21928 -0.46453,-0.30022 -0.85567,-0.67648 -0.85552,-0.87808 1.9e-4,-0.22437 -0.28686,-0.34879 -0.86105,-0.34879 -0.006,0 -0.0129,3e-5 -0.0193,5e-5 -0.004,4e-5 -0.007,4e-5 -0.011,4e-5 -0.91965,0 -1.0615,-0.55011 -0.18423,-0.73001 0.92968,-0.18093 1.54204,-1.14203 1.93508,-3.08563 0.0983,-0.4797 0.53942,-1.21347 1.00479,-1.64465 0.61253,-0.58338 0.83325,-1.03875 0.85825,-1.64455 0.0754,-2.0699 -0.14447,-2.6241 -1.19702,-3.0224 -0.29374,-0.12465 -0.70963,-0.6021 -0.90503,-1.08067 -0.19553,-0.47867 -0.70923,-1.13233 -1.14969,-1.43296 -0.41605,-0.32597 -1.15008,-1.00367 -1.6149,-1.53149 -0.46488,-0.52774 -1.24788,-1.20514 -1.73743,-1.50552 -2.961,-1.85216 -3.10785,-2.05338 -2.34863,-3.57352 0.46538,-0.93762 0.46598,-2.70676 10e-4,-3.86661 -0.41596,-1.00873 -0.34232,-1.5907 0.22088,-1.59417 0.7837,-0.005 1.8129,-1.27564 2.10752,-2.61808 0.17181,-0.70948 0.44178,-1.59671 0.61346,-1.95202 0.34342,-0.71086 0.51547,-1.57246 0.86012,-4.3595 0.2463,-2.02762 0.12404,-2.68549 -1.09986,-6.78166 -0.36724,-1.1886 -0.43994,-3.1909 -0.60706,-13.69387 -0.1915,-11.40808 -0.26474,-12.57736 -0.80395,-15.7528 -0.34327,-1.88023 -0.78489,-4.03995 -1.03037,-4.7507 -0.41742,-1.29483 -0.39282,-1.39698 0.0253,-2.29213 1.42691,-3.07015 1.72323,-5.9274 0.83853,-7.7547 -0.29492,-0.55816 -1.13074,-1.59572 -1.91754,-2.32772 -2.18832,-2.04474 -3.19642,-3.25921 -3.36852,-3.9208 -0.1722,-0.76374 -1.08204,-2.05598 -2.5331,-3.59824 -0.56564,-0.63232 -1.08218,-1.36728 -1.15603,-1.64734 -0.0738,-0.28 -0.517,-2.24133 -0.98492,-4.33047 -1.55219,-6.80558 -2.9076,-11.52106 -3.67095,-12.74033 -0.17244,-0.27945 -0.39424,-0.83975 -0.49293,-1.24805 -0.0987,-0.3826 -0.36981,-1.19835 -0.61627,-1.78402 -0.24646,-0.56023 -0.6409,-1.57947 -0.88746,-2.2677 -0.22171,-0.66217 -0.4924,-1.19605 -0.61566,-1.19605 h -10e-4 c -0.0985,0 -0.24574,-0.22818 -0.31956,-0.48268 -0.21872,-0.90474 -1.582,-1.5234 -3.26742,-1.5234 -0.0267,0 -0.0535,1.6e-4 -0.0803,4.7e-4 -0.066,7.6e-4 -0.1298,0.001 -0.1918,0.001 -1.16404,0 -1.6726,-0.14643 -2.95786,-0.8606 -0.88602,-0.47606 -2.06713,-0.9487 -2.60824,-1.0191 -0.56568,-0.0958 -1.13143,-0.24276 -1.2791,-0.34346 -0.44306,-0.3275 -1.89387,-0.5153 -5.04029,-0.70858 -2.0643,-0.10372 -3.34221,-0.29339 -3.85864,-0.56878 -0.44271,-0.2507 -1.20472,-0.49756 -1.72071,-0.56824 -1.10556,-0.16605 -3.2202,-1.31805 -4.74577,-2.60504 -0.61511,-0.50446 -1.30383,-0.98252 -1.57416,-1.08161 -0.41777,-0.14855 -0.44284,-0.35305 -0.27926,-3.42715 0.18599,-3.92123 0.66688,-7.8485 1.05726,-8.90454 0.17095,-0.41251 0.5623,-1.13546 0.88071,-1.57556 0.71036,-0.9838 1.8353,-3.41007 1.83396,-3.97464 -0.001,-0.4285 0.0695,-0.60388 0.43293,-0.60388 0.20252,0 0.49596,0.0544 0.91859,0.14992 0.30571,0.0681 0.60975,0.10148 0.90941,0.10148 1.72661,0 3.30782,-1.10698 4.22663,-3.04474 0.41679,-0.85318 0.61184,-1.832 0.7071,-3.50344 0.0714,-1.28602 0.43653,-3.52747 0.80315,-5.0239 0.66022,-2.6842 0.66014,-2.7356 0.23822,-4.37647 -0.3477,-1.46213 -0.37303,-1.82211 -0.0789,-2.70135 0.26959,-0.80191 0.33885,-3.35221 0.34937,-11.08295 l 0.0309,-10.06243 -0.69569,-2.4683 c -0.69569,-2.36548 -1.73637,-4.31273 -3.36964,-6.2251 -0.34644,-0.40813 -0.6436,-0.84276 -0.64383,-0.94626 -2.4e-4,-0.10334 -0.866,-0.91662 -1.90475,-1.80482 -2.74517,-2.2827 -5.04426,-3.87433 -6.74894,-4.64839 -0.46942,-0.22515 -1.30929,-0.59934 -1.85276,-0.84905 -1.60566,-0.74965 -4.81475,-1.67975 -6.54157,-1.93578 -1.56717,-0.2366 -3.23204,-0.35368 -4.60451,-0.35368 z"
         id="path3738" />
    </g>
  </g>
  <flowRoot
     xml:space="preserve"
     id="flowRoot3778"
     style="font-style:normal;font-weight:normal;font-size:40px;line-height:1.25;font-family:sans-serif;letter-spacing:0px;word-spacing:0px;fill:#000000;fill-opacity:1;stroke:none"
     transform="matrix(0.99787446,0,0,0.99787446,-180.63976,-2.1058004)"><flowRegion
       id="flowRegion3780"><rect
         id="rect3782"
         width="565.53674"
         height="800.84747"
         x="468.64407"
         y="65.254234" /></flowRegion><flowPara
       id="flowPara3784"
       style="font-style:normal;font-variant:normal;font-weight:normal;font-stretch:normal;font-size:192px;font-family:PMingLiU-ExtB;-inkscape-font-specification:PMingLiU-ExtB">TV</flowPara><flowPara
       id="flowPara3786"
       style="font-style:normal;font-variant:normal;font-weight:normal;font-stretch:normal;font-size:192px;font-family:PMingLiU-ExtB;-inkscape-font-specification:PMingLiU-ExtB">1927</flowPara></flowRoot></svg>
